<svg xmlns="http://www.w3.org/2000/svg" viewBox="0 0 480 200" width="480" height="200" role="img" aria-label="Crop hail damage case cover">
  <rect width="480" height="200" fill="#fffbeb"/>
  <rect width="480" height="200" fill="url(#g014)"/>
  <defs><linearGradient id="g014" x1="0" y1="0" x2="0" y2="1">
    <stop offset="0" stop-color="#ffffff" stop-opacity=".55"/>
    <stop offset="1" stop-color="#d97706" stop-opacity=".15"/>
  </linearGradient></defs>
  <rect x="16" y="16" width="448" height="168" fill="none" stroke="#d97706" stroke-opacity=".4" stroke-width="2"/>
  <g fill="#1f2937" fill-opacity=".5">
    <path d="M120 170 l4 -50 8 0 4 50 z"/>
    <path d="M150 172 l4 -55 8 0 4 55 z"/>
    <path d="M180 170 l4 -48 8 0 4 48 z"/>
    <path d="M210 173 l4 -52 8 0 4 52 z"/>
    <circle cx="300" cy="70" r="5"/>
    <circle cx="330" cy="55" r="4"/>
    <circle cx="350" cy="90" r="6"/>
    <circle cx="290" cy="110" r="4"/>
    <circle cx="370" cy="120" r="5"/>
  </g>
  <text x="32" y="44" font-family="Inter, sans-serif" font-size="13" letter-spacing="3" fill="#d97706" fill-opacity=".8" font-weight="700">CASE FILE · 014</text>
</svg>
