<svg xmlns="http://www.w3.org/2000/svg" viewBox="0 0 480 200" width="480" height="200" role="img" aria-label="Arsonist microwave case cover">
  <rect width="480" height="200" fill="#efe6dc"/>
  <rect width="480" height="200" fill="url(#g17)"/>
  <defs>
    <linearGradient id="g17" x1="0" y1="0" x2="0" y2="1">
      <stop offset="0" stop-color="#fed7aa" stop-opacity=".55"/>
      <stop offset="1" stop-color="#dc2626" stop-opacity=".18"/>
    </linearGradient>
  </defs>
  <rect x="16" y="16" width="448" height="168" fill="none" stroke="#d97706" stroke-opacity=".45" stroke-width="2"/>
  <g>
    <rect x="300" y="70" width="120" height="76" rx="6" fill="#9ca3af" fill-opacity=".55"/>
    <rect x="312" y="82" width="70" height="52" rx="3" fill="#1f2937" fill-opacity=".5"/>
    <circle cx="402" cy="92" r="6" fill="#dc2626" fill-opacity=".6"/>
    <rect x="396" y="108" width="12" height="22" rx="2" fill="#1f2937" fill-opacity=".4"/>
    <path d="M330 132 q6 -22 18 -10 q10 -14 18 4 q8 -6 6 6 z" fill="#ef4444" fill-opacity=".6"/>
    <path d="M150 150 q-6 -40 26 -44 q34 -4 30 30 q14 8 -2 16 z" fill="#6b7280" fill-opacity=".6"/>
    <circle cx="166" cy="120" r="4" fill="#1f2937" fill-opacity=".7"/>
    <circle cx="190" cy="120" r="4" fill="#1f2937" fill-opacity=".7"/>
    <path d="M150 112 l-12 -6 M206 112 l12 -6" stroke="#1f2937" stroke-opacity=".5" stroke-width="3" stroke-linecap="round"/>
  </g>
  <text x="32" y="44" font-family="Inter, sans-serif" font-size="13" letter-spacing="3" fill="#d97706" fill-opacity=".9" font-weight="700">CASE FILE · 017</text>
</svg>
