<svg xmlns="http://www.w3.org/2000/svg" viewBox="0 0 480 200" width="480" height="200" role="img" aria-label="Gourmet dog case cover">
  <rect width="480" height="200" fill="#e9e3d3"/>
  <rect width="480" height="200" fill="url(#g3)"/>
  <defs>
    <linearGradient id="g3" x1="0" y1="0" x2="0" y2="1">
      <stop offset="0" stop-color="#ffffff" stop-opacity=".55"/>
      <stop offset="1" stop-color="#92400e" stop-opacity=".14"/>
    </linearGradient>
  </defs>
  <rect x="16" y="16" width="448" height="168" fill="none" stroke="#92400e" stroke-opacity=".4" stroke-width="2"/>
  <g fill="#1f2937" fill-opacity=".5">
    <ellipse cx="170" cy="120" rx="60" ry="34" fill="#6b7280" fill-opacity=".5"/>
    <circle cx="120" cy="104" r="26" fill="#6b7280" fill-opacity=".55"/>
    <path d="M100 80 q-10 -22 6 -26 q6 14 10 22z" fill="#6b7280" fill-opacity=".55"/>
    <path d="M134 80 q10 -22 -6 -26 q-6 14 -10 22z" fill="#6b7280" fill-opacity=".55"/>
    <circle cx="112" cy="104" r="3" fill="#1f2937"/>
    <circle cx="128" cy="104" r="3" fill="#1f2937"/>
  </g>
  <g transform="translate(320 70)">
    <circle cx="0" cy="0" r="30" fill="none" stroke="#92400e" stroke-opacity=".7" stroke-width="6"/>
    <line x1="0" y1="0" x2="0" y2="-16" stroke="#92400e" stroke-opacity=".7" stroke-width="4" stroke-linecap="round"/>
    <line x1="0" y1="0" x2="12" y2="6" stroke="#92400e" stroke-opacity=".7" stroke-width="4" stroke-linecap="round"/>
    <rect x="-9" y="-44" width="18" height="14" rx="3" fill="#92400e" fill-opacity=".6"/>
    <rect x="-9" y="30" width="18" height="14" rx="3" fill="#92400e" fill-opacity=".6"/>
  </g>
  <text x="32" y="44" font-family="Inter, sans-serif" font-size="13" letter-spacing="3" fill="#92400e" fill-opacity=".8" font-weight="700">CASE FILE · 003</text>
</svg>
