<svg xmlns="http://www.w3.org/2000/svg" viewBox="0 0 480 200" width="480" height="200" role="img" aria-label="Wine cellar case cover">
  <rect width="480" height="200" fill="#e7ddde"/>
  <rect width="480" height="200" fill="url(#g6)"/>
  <defs>
    <linearGradient id="g6" x1="0" y1="0" x2="0" y2="1">
      <stop offset="0" stop-color="#fae8ef" stop-opacity=".6"/>
      <stop offset="1" stop-color="#9f1239" stop-opacity=".18"/>
    </linearGradient>
  </defs>
  <rect x="16" y="16" width="448" height="168" fill="none" stroke="#9f1239" stroke-opacity=".4" stroke-width="2"/>
  <g fill="#1f2937" fill-opacity=".5">
    <g transform="translate(150 96)">
      <rect x="-12" y="-44" width="24" height="44" rx="4" fill="#7f1d1d" fill-opacity=".55"/>
      <rect x="-9" y="-66" width="18" height="24" rx="3" fill="#7f1d1d" fill-opacity=".55"/>
      <rect x="-12" y="-18" width="24" height="14" fill="#374151" fill-opacity=".5"/>
    </g>
    <g transform="translate(196 96)">
      <rect x="-12" y="-44" width="24" height="44" rx="4" fill="#7f1d1d" fill-opacity=".5"/>
      <rect x="-9" y="-66" width="18" height="24" rx="3" fill="#7f1d1d" fill-opacity=".5"/>
      <rect x="-12" y="-18" width="24" height="14" fill="#374151" fill-opacity=".5"/>
    </g>
    <line x1="120" y1="100" x2="226" y2="100" stroke="#1f2937" stroke-opacity=".35" stroke-width="3"/>
  </g>
  <g transform="translate(330 50)">
    <rect x="-7" y="0" width="14" height="70" rx="7" fill="none" stroke="#9f1239" stroke-opacity=".7" stroke-width="4"/>
    <circle cx="0" cy="74" r="13" fill="#9f1239" fill-opacity=".7"/>
    <rect x="-3" y="20" width="6" height="54" fill="#9f1239" fill-opacity=".7"/>
    <text x="22" y="48" font-family="Inter, sans-serif" font-size="20" fill="#9f1239" font-weight="800">13°</text>
  </g>
  <text x="32" y="44" font-family="Inter, sans-serif" font-size="13" letter-spacing="3" fill="#9f1239" fill-opacity=".85" font-weight="700">CASE FILE · 006</text>
</svg>
