<svg xmlns="http://www.w3.org/2000/svg" viewBox="0 0 480 200" width="480" height="200" role="img" aria-label="Live-streamed poltergeist case cover">
  <rect width="480" height="200" fill="#e4e0ea"/>
  <rect width="480" height="200" fill="url(#g5)"/>
  <defs>
    <linearGradient id="g5" x1="0" y1="0" x2="0" y2="1">
      <stop offset="0" stop-color="#ede9fe" stop-opacity=".7"/>
      <stop offset="1" stop-color="#6d28d9" stop-opacity=".16"/>
    </linearGradient>
  </defs>
  <rect x="16" y="16" width="448" height="168" fill="none" stroke="#6d28d9" stroke-opacity=".4" stroke-width="2"/>
  <g fill="#1f2937" fill-opacity=".5">
    <path d="M150 80 q0 -34 34 -34 t34 34 v60 l-12 -10 -11 10 -11 -10 -11 10 -12 -10z" fill="#a78bfa" fill-opacity=".5"/>
    <circle cx="174" cy="78" r="5" fill="#1f2937" fill-opacity=".6"/>
    <circle cx="194" cy="78" r="5" fill="#1f2937" fill-opacity=".6"/>
    <g transform="rotate(-18 320 110)">
      <rect x="290" y="92" width="64" height="40" rx="3" fill="#374151" fill-opacity=".5"/>
      <rect x="284" y="130" width="76" height="8" rx="2" fill="#374151" fill-opacity=".6"/>
      <line x1="300" y1="100" x2="344" y2="124" stroke="#ef4444" stroke-opacity=".6" stroke-width="3"/>
    </g>
  </g>
  <g transform="translate(384 56)">
    <circle cx="0" cy="0" r="8" fill="#ef4444" fill-opacity=".8"/>
    <text x="16" y="5" font-family="Inter, sans-serif" font-size="14" letter-spacing="2" fill="#ef4444" font-weight="800">LIVE</text>
  </g>
  <text x="32" y="44" font-family="Inter, sans-serif" font-size="13" letter-spacing="3" fill="#6d28d9" fill-opacity=".85" font-weight="700">CASE FILE · 005</text>
</svg>
