<svg xmlns="http://www.w3.org/2000/svg" viewBox="0 0 480 200" width="480" height="200" role="img" aria-label="Driverless lawnmower case cover">
  <rect width="480" height="200" fill="#e3ecd9"/>
  <rect width="480" height="200" fill="url(#g19)"/>
  <defs>
    <linearGradient id="g19" x1="0" y1="0" x2="0" y2="1">
      <stop offset="0" stop-color="#bbf7d0" stop-opacity=".5"/>
      <stop offset="1" stop-color="#16a34a" stop-opacity=".16"/>
    </linearGradient>
  </defs>
  <rect x="16" y="16" width="448" height="168" fill="none" stroke="#16a34a" stroke-opacity=".4" stroke-width="2"/>
  <g>
    <rect x="300" y="100" width="100" height="34" rx="6" fill="#16a34a" fill-opacity=".5"/>
    <rect x="318" y="78" width="8" height="26" fill="#1f2937" fill-opacity=".45"/>
    <rect x="312" y="72" width="22" height="8" rx="4" fill="#1f2937" fill-opacity=".45"/>
    <circle cx="318" cy="142" r="14" fill="#374151" fill-opacity=".6"/>
    <circle cx="384" cy="142" r="10" fill="#374151" fill-opacity=".6"/>
    <rect x="120" y="118" width="120" height="30" rx="6" fill="#9ca3af" fill-opacity=".55"/>
    <path d="M170 150 q-4 -22 16 -24 q22 -2 18 18 q9 5 -2 10 z" fill="#6b7280" fill-opacity=".6"/>
    <circle cx="182" cy="132" r="3.5" fill="#1f2937" fill-opacity=".7"/>
    <circle cx="196" cy="132" r="3.5" fill="#1f2937" fill-opacity=".7"/>
  </g>
  <text x="32" y="44" font-family="Inter, sans-serif" font-size="13" letter-spacing="3" fill="#16a34a" fill-opacity=".85" font-weight="700">CASE FILE · 019</text>
</svg>
